<svg xmlns="http://www.w3.org/2000/svg" xmlns:xlink="http://www.w3.org/1999/xlink" viewBox="0 0 304 400"><defs><style>.a{fill:none;}.b{clip-path:url(#a);}.c{fill:#5660a9;}</style><clipPath id="a"><rect class="a" width="304" height="400"/></clipPath></defs><title>baby</title><g class="b"><path class="c" d="M152,0A152.16,152.16,0,0,0,0,152v96a152,152,0,0,0,304,0V152A152.16,152.16,0,0,0,152,0M16,152A136,136,0,1,1,152,288,152.08,152.08,0,0,0,45.29,332.05,135.22,135.22,0,0,1,16,248Zm272,96A135.93,135.93,0,0,1,55.85,344.09,136.06,136.06,0,0,1,152,304a152,152,0,0,0,136-84.53Z"/><path class="c" d="M152,256A104,104,0,1,0,48,152,104,104,0,0,0,152,256m0-192a88,88,0,1,1-88,88,88,88,0,0,1,88-88"/><path class="c" d="M152,224a53.88,53.88,0,0,0,53.82-53.82,8,8,0,0,0-8-8H106.18a8,8,0,0,0-8,8A53.88,53.88,0,0,0,152,224m37-45.82a37.83,37.83,0,0,1-73.94,0Z"/></g></svg>