<svg xmlns="http://www.w3.org/2000/svg" xmlns:xlink="http://www.w3.org/1999/xlink" viewBox="0 0 386.33 512"><defs><style>.a{fill:none;}.b{clip-path:url(#a);}</style><clipPath id="a"><rect class="a" width="386.33" height="512"/></clipPath></defs><title>blister</title><g class="b"><path d="M100.33,30a70.34,70.34,0,1,0,70.34,70.33A70.41,70.41,0,0,0,100.33,30m0,15a55,55,0,0,1,33.44,11.29L56.29,133.77a55.29,55.29,0,0,1,44-88.77m0,110.67a55,55,0,0,1-33.44-11.29l77.49-77.49a55.3,55.3,0,0,1-44,88.78"/><path d="M100.33,185.67A70.33,70.33,0,1,0,170.67,256a70.41,70.41,0,0,0-70.34-70.33m0,15A55,55,0,0,1,133.77,212L56.29,289.44a55.29,55.29,0,0,1,44-88.77m0,110.66a55.09,55.09,0,0,1-33.44-11.28l77.49-77.49a55.29,55.29,0,0,1-44,88.77"/><path d="M100.33,341.33a70.34,70.34,0,1,0,70.34,70.34,70.42,70.42,0,0,0-70.34-70.34m0,15a55,55,0,0,1,33.44,11.29L56.29,445.11a55.3,55.3,0,0,1,44-88.78m0,110.67a55,55,0,0,1-33.44-11.29l77.49-77.48a55.29,55.29,0,0,1-44,88.77"/><path d="M286,30a70.34,70.34,0,1,0,70.33,70.33A70.41,70.41,0,0,0,286,30m0,15a55,55,0,0,1,33.44,11.29L242,133.77A55.3,55.3,0,0,1,286,45m0,110.67a55,55,0,0,1-33.44-11.29l77.49-77.49A55.31,55.31,0,0,1,286,155.67"/><path d="M286,185.67A70.33,70.33,0,1,0,356.33,256,70.41,70.41,0,0,0,286,185.67m0,15A55.07,55.07,0,0,1,319.44,212L242,289.44A55.3,55.3,0,0,1,286,200.67m0,110.66a55,55,0,0,1-33.44-11.28l77.49-77.49A55.3,55.3,0,0,1,286,311.33"/><path d="M286,341.33a70.34,70.34,0,1,0,70.33,70.34A70.42,70.42,0,0,0,286,341.33m0,15a55,55,0,0,1,33.44,11.29L242,445.11A55.31,55.31,0,0,1,286,356.33M286,467a55,55,0,0,1-33.44-11.29l77.49-77.48A55.3,55.3,0,0,1,286,467"/><path d="M333.83,0H238.17a52.51,52.51,0,0,0-45,25.49A52.53,52.53,0,0,0,148.17,0H52.5A52.56,52.56,0,0,0,0,52.5v407A52.56,52.56,0,0,0,52.5,512h95.67a52.53,52.53,0,0,0,45-25.49,52.51,52.51,0,0,0,45,25.49h95.66a52.56,52.56,0,0,0,52.5-52.5V52.5A52.56,52.56,0,0,0,333.83,0m37.5,459.5a37.54,37.54,0,0,1-37.5,37.5H238.17a37.54,37.54,0,0,1-37.5-37.5V271a7.5,7.5,0,0,0-15,0V459.5a37.54,37.54,0,0,1-37.5,37.5H52.5A37.54,37.54,0,0,1,15,459.5V52.5A37.54,37.54,0,0,1,52.5,15h95.67a37.54,37.54,0,0,1,37.5,37.5V241a7.5,7.5,0,0,0,15,0V52.5A37.54,37.54,0,0,1,238.17,15h95.66a37.54,37.54,0,0,1,37.5,37.5Z"/></g></svg>