<svg xmlns="http://www.w3.org/2000/svg" xmlns:xlink="http://www.w3.org/1999/xlink" viewBox="0 0 2140.86 312.02"><defs><style>.a{fill:none;}.b{fill:#9b9b9b;}.c{clip-path:url(#a);}</style><clipPath id="a" transform="translate(0 0)"><rect class="a" width="2140.86" height="312.02"/></clipPath></defs><title>not-drug</title><polygon class="b" points="273.89 0 270.07 0.04 271.6 135.91 237.52 136.3 235.99 0.43 232.17 0.47 235.44 290.44 239.26 290.39 237.67 149.14 271.75 148.75 273.34 290.01 277.16 289.96 273.89 0"/><polygon class="b" points="331.07 0 294 0.42 297.28 290.38 334.7 289.96 334.56 277.54 300.96 277.92 299.51 149.09 330.24 148.74 330.1 136.31 299.37 136.66 297.97 12.8 331.21 12.43 331.07 0"/><g class="c"><path class="b" d="M394.84,170.06c-12-3.59-20.22-33.33-20.8-84.28C373.42,30.28,382.41.34,395.91.19L412.77,0,416,290l-3.82.05L410.87,170.3l-11.6.13-20.41,120-4.54.05Zm15.89-12.2L409.09,12.47l-13,.15c-11.6.13-18.75,23.83-18.2,72.7.55,48.47,8.24,72.82,19.72,72.69Z" transform="translate(0 0)"/><path class="b" d="M477.35,211c.57,50.54-8,78.81-22.55,79l-18.65.21L432.88.2,450.46,0c13.15-.15,21.35,26.69,21.87,73.08.36,31.9-3.05,58-11.81,66C472,146.83,477,175.36,477.35,211m-40.5-198.4L438.22,134l14.46-.16c11.48-.13,16.21-26.7,15.82-60.66-.44-39.77-6.9-60.83-17.9-60.7ZM473.53,211c-.42-36.45-7.31-65-20.58-64.81l-14.59.16,1.48,131.31,14.82-.16c12.44-.14,19.36-23,18.87-66.5" transform="translate(0 0)"/><path class="b" d="M526.65,0l3.27,290-3.83.05L523,12.47l-24.86.28c-.32,130.51-.65,186.85-1.71,219.59-.69,24-3.85,61.36-12.58,61.46L483.67,281c6.33-.07,8.48-32,9-50.23C493.55,203.38,494,145,494.25.37Z" transform="translate(0 0)"/><path class="b" d="M564.82,170.06c-12-3.59-20.22-33.33-20.8-84.28C543.4,30.28,552.38.34,565.89.19L582.75,0,586,290l-3.83.05L580.85,170.3l-11.6.13-20.41,120-4.54.05Zm15.89-12.2L579.07,12.47l-13,.15c-11.59.13-18.74,23.83-18.19,72.7.55,48.47,8.24,72.82,19.72,72.69Z" transform="translate(0 0)"/><polygon class="b" points="690.19 12.43 671.06 12.64 674.19 290.18 670.36 290.22 667.23 12.69 648.46 12.9 648.32 0.47 690.05 0 690.19 12.43"/><path class="b" d="M701.76,214.81,700.31,85.57C699.67,29.24,707.71.14,720.38,0c13.28-.15,21.23,26.69,22.89,78.87l-3.82,0c-1.59-45.14-7.93-66.62-18.93-66.49-10.4.11-16.94,23.8-16.39,73.1l1.46,129.24c.56,49.3,7.64,72.83,18.16,72.71,11.24-.13,17.33-21.74,17.89-66.9l3.71-.05c-.36,52.21-8,79.23-21.46,79.38-12.67.14-21.49-28.76-22.13-85.1" transform="translate(0 0)"/><path class="b" d="M775.83,170.06c-12-3.59-20.23-33.33-20.8-84.28C754.4,30.28,763.39.34,776.9.19L793.76,0,797,290l-3.83.05L791.85,170.3l-11.6.13-20.4,120-4.55.05Zm15.88-12.2L790.07,12.47l-13,.15c-11.6.13-18.74,23.83-18.19,72.7.54,48.47,8.23,72.82,19.71,72.69Z" transform="translate(0 0)"/><path class="b" d="M881,0l3.27,290-3.83.05L877.27,12.47l-24.87.28c-.32,130.51-.64,186.85-1.7,219.59-.69,24-3.86,61.36-12.58,61.46L838,281c6.34-.07,8.49-32,9-50.23.89-27.35,1.31-85.78,1.59-230.36Z" transform="translate(0 0)"/><polygon class="b" points="941.62 277.54 941.76 289.96 904.34 290.38 901.07 0.42 938.13 0 938.27 12.43 905.04 12.8 906.43 136.66 937.16 136.31 937.3 148.74 906.58 149.09 908.03 277.91 941.62 277.54"/><polygon class="b" points="640.42 277.54 640.56 289.96 603.14 290.38 599.87 0.42 636.93 0 637.07 12.43 603.84 12.8 605.23 136.66 635.96 136.31 636.1 148.74 605.37 149.09 606.83 277.91 640.42 277.54"/><polygon class="b" points="966.84 137.03 959.47 172.33 960.8 290.39 956.97 290.43 953.7 0.47 957.53 0.42 959.23 151.62 963.09 132.52 990.17 0.06 994.95 0 969.22 125.4 1001.21 289.93 996.79 289.98 966.84 137.03"/><path class="b" d="M1047,210.29l-28.93.33-5.08,79.6-4.07,0L1028,.05l4.3,0L1058,289.71l-4.06.05Zm-1.09-12-10.18-118c-1.92-21.93-3.72-44.28-5.37-62.9-1.22,18.65-2.53,41-4,63l-7.51,118.15Z" transform="translate(0 0)"/><path class="b" d="M1086.34,174.81l-14.11.16,1.3,115.15-3.83.05L1066.43.2l17.94-.2c14.82-.17,23.43,31.64,24.16,85.9.76,56.34-7.37,88.74-22.19,88.91m-1.83-162L1070.4,13l1.69,149.54,14.11-.16c12.67-.14,18.94-27.55,18.51-76.44-.41-46.81-7.53-73.24-20.2-73.1" transform="translate(0 0)"/><path class="b" d="M1122.63,214.81l-1.46-129.24c-.63-56.33,7.41-85.43,20.08-85.57,13.27-.15,21.23,26.69,22.89,78.87l-3.83,0c-1.58-45.14-7.92-66.62-18.92-66.49-10.4.11-17,23.8-16.39,73.1l1.46,129.24c.55,49.3,7.63,72.83,18.15,72.71,11.24-.13,17.34-21.74,17.9-66.9l3.7-.05c-.36,52.21-8,79.23-21.46,79.38-12.67.14-21.49-28.76-22.12-85.1" transform="translate(0 0)"/><polygon class="b" points="1213.21 12.43 1194.08 12.64 1197.21 290.18 1193.38 290.22 1190.26 12.69 1171.48 12.9 1171.35 0.47 1213.07 0 1213.21 12.43"/><path class="b" d="M1270.47,211c.57,50.54-8,78.81-22.54,79l-18.66.21L1226,.2l17.58-.2c13.15-.15,21.34,26.69,21.87,73.08.36,31.9-3,58-11.81,66,11.44,7.74,16.43,36.27,16.83,71.89M1230,12.58,1231.34,134l14.47-.16c11.47-.13,16.2-26.7,15.81-60.66-.44-39.77-6.9-60.83-17.9-60.7ZM1266.65,211c-.42-36.45-7.32-65-20.59-64.81l-14.58.16L1233,277.69l14.83-.16c12.43-.14,19.35-23,18.86-66.5" transform="translate(0 0)"/><polygon class="b" points="1322.3 277.54 1322.44 289.96 1285.02 290.38 1281.75 0.42 1318.81 0 1318.95 12.43 1285.71 12.8 1287.11 136.66 1317.84 136.31 1317.98 148.74 1287.25 149.09 1288.7 277.91 1322.3 277.54"/><polygon class="b" points="1376.11 0 1379.38 289.96 1375.55 290.01 1373.96 148.75 1339.88 149.14 1341.48 290.39 1337.65 290.44 1334.38 0.47 1338.21 0.43 1339.74 136.3 1373.82 135.91 1372.28 0.04 1376.11 0"/><polygon class="b" points="1437.94 0 1441.22 289.96 1437.39 290.01 1435.8 148.75 1401.72 149.14 1403.32 290.39 1399.49 290.44 1396.22 0.47 1400.05 0.43 1401.58 136.3 1435.65 135.91 1434.12 0.04 1437.94 0"/><path class="b" d="M1458.06.61l3.83,0,1.41,124.68,14.1-.16c14.83-.16,23.41,29.15,24,81.76.6,53.44-7.32,83.36-22.14,83.52l-17.94.21Zm21.06,276.92c12.68-.14,19-23.82,18.46-70.63-.52-46-7.36-69.52-20-69.38l-14.1.16,1.58,140ZM1508.4,0l3.83,0,3.27,290-3.83.05Z" transform="translate(0 0)"/><path class="b" d="M1587.11,0l3.26,289.14-3.82,0-2.41-213.75c-.18-15.74-.24-31.06-.28-45.56h-.13l-4.31,41.06-15.36,143.52-3.83,0L1541.76,71.36c-1.84-14.48-3.79-28.55-5.25-41h-.12c.28,14.5.46,29.82.63,45.56l2.41,213.75-3.82,0L1532.35.62l4.07-.05,20.41,156c1.7,13.24,3.56,29.37,5.13,41.79h.12c1.18-12.44,2.79-28.61,4.19-41.89L1583,.05Z" transform="translate(0 0)"/><path class="b" d="M1637.47,214.81,1636,85.57c-.64-56.33,7.4-85.43,20.08-85.57,13.27-.15,21.23,26.69,22.89,78.87l-3.83,0c-1.58-45.14-7.92-66.62-18.92-66.49-10.4.11-17,23.8-16.39,73.1l1.46,129.24c.55,49.3,7.64,72.83,18.15,72.71,11.24-.13,17.34-21.74,17.9-66.9l3.71-.05c-.37,52.21-8,79.23-21.47,79.38-12.67.14-21.49-28.76-22.12-85.1" transform="translate(0 0)"/><path class="b" d="M1713.38,174.81l-14.11.16,1.3,115.15-3.83.05L1693.47.2l17.94-.2c14.82-.17,23.43,31.64,24.17,85.9.75,56.34-7.38,88.74-22.2,88.91m-1.83-162-14.1.16,1.68,149.54,14.11-.16c12.67-.14,18.94-27.55,18.51-76.44-.41-46.81-7.53-73.24-20.2-73.1" transform="translate(0 0)"/><polygon class="b" points="1787.73 277.54 1787.87 289.96 1750.46 290.38 1747.18 0.42 1784.24 0 1784.38 12.43 1751.15 12.8 1752.55 136.66 1783.27 136.31 1783.41 148.74 1752.68 149.09 1754.14 277.92 1787.73 277.54"/><path class="b" d="M1851.81,277.46l.39,33.93-3.83.05-.24-21.1-48.06.54.23,21.1-3.7,0-.38-33.93,5.37-.06c4.7-19.12,7.8-72.59,7.68-125.62L1809,.37,1841.51,0l3.13,277.54Zm-14.11-265-24.86.28.16,141.69c0,50.54-2.47,98.63-6.74,123.53l34.43-.39Z" transform="translate(0 0)"/><path class="b" d="M94,210.29l-28.93.33L60,290.22l-4.07,0L75,.05l4.3,0L105,289.71l-4.06.05Zm-1.09-12-10.18-118C80.83,58.4,79,36.05,77.38,17.43c-1.22,18.65-2.53,41-4,63L65.91,198.59Z" transform="translate(0 0)"/><path class="b" d="M27.64,139.09c11.44,7.74,16.43,36.27,16.83,71.89.57,50.54-8,78.81-22.54,79l-18.66.21L0,.2,36.58,0l.14,12.43L4,12.58,5.34,134c9.77-.56,13.77-.56,22.3,5.14m13,71.94c-.42-36.45-7.32-65-20.59-64.82l-14.58.17L7,277.69l14.83-.16c12.43-.14,19.35-23,18.86-66.5" transform="translate(0 0)"/><path class="b" d="M171.81,277.46l.39,33.93-3.83.05-.24-21.1-48.06.54.23,21.1-3.7,0-.38-33.93,5.37-.06c4.7-19.12,7.8-72.59,7.68-125.62L129,.37,161.51,0l3.13,277.54Zm-14.11-265-24.86.28L133,154.44c0,50.54-2.47,98.63-6.74,123.53l34.43-.39Z" transform="translate(0 0)"/><path class="b" d="M1861.51,214.81l-1.45-129.24c-.64-56.33,7.4-85.43,20.07-85.57,13.28-.15,21.23,26.69,22.89,78.87l-3.83,0c-1.58-45.14-7.92-66.62-18.92-66.49-10.4.11-17,23.8-16.39,73.1l1.46,129.24c.55,49.3,7.64,72.83,18.15,72.71,11.25-.13,17.34-21.74,17.9-66.9l3.71-.05c-.37,52.21-7.95,79.23-21.47,79.38-12.67.14-21.48-28.76-22.12-85.1" transform="translate(0 0)"/><polygon class="b" points="1952.09 12.43 1932.96 12.64 1936.09 290.18 1932.27 290.22 1929.14 12.69 1910.37 12.9 1910.23 0.47 1951.95 0 1952.09 12.43"/><path class="b" d="M2009.36,211c.57,50.54-8,78.81-22.55,79l-18.65.21L1964.89.2l17.58-.2c13.15-.15,21.34,26.69,21.87,73.08.36,31.9-3.06,58-11.81,66,11.44,7.74,16.43,36.27,16.83,71.89m-40.51-198.4L1970.22,134l14.47-.16c11.48-.13,16.2-26.7,15.82-60.66-.45-39.77-6.91-60.83-17.91-60.7ZM2005.53,211c-.41-36.45-7.31-65-20.58-64.81l-14.59.16,1.48,131.31,14.83-.16c12.44-.14,19.35-23,18.86-66.5" transform="translate(0 0)"/><path class="b" d="M2022.14,212.76l-1.41-124.68c-.64-57.17,7.74-87.92,21.61-88.08s22.94,30.4,23.58,87.57l1.41,124.68c.63,56.33-7.74,87.5-21.61,87.66s-22.94-30.82-23.58-87.15m41.36-.46-1.4-124.69c-.56-49.71-8-74.9-19.61-74.76S2024.11,38.32,2024.68,88l1.4,124.69c.56,49.29,7.9,74.48,19.5,74.35s18.48-25.48,17.92-74.77" transform="translate(0 0)"/><path class="b" d="M2137.6,0l3.26,289.14-3.83,0-2.41-213.75c-.18-15.74-.23-31.06-.28-45.56h-.12l-4.31,41.06-15.37,143.52-3.82,0L2092.24,71.36c-1.84-14.48-3.79-28.55-5.24-41h-.12c.28,14.5.45,29.82.63,45.56l2.41,213.75-3.83,0L2082.83.62l4.07-.05,20.41,156c1.7,13.24,3.56,29.37,5.14,41.79h.12c1.18-12.44,2.78-28.61,4.19-41.89L2133.53.05Z" transform="translate(0 0)"/><path class="b" d="M192.11,285.19c0,4.31-2.3,7.81-5.15,7.81s-5.14-3.5-5.14-7.81,2.3-7.82,5.14-7.82,5.15,3.5,5.15,7.82" transform="translate(0 0)"/></g></svg>