<svg xmlns="http://www.w3.org/2000/svg" xmlns:xlink="http://www.w3.org/1999/xlink" viewBox="0 0 384 384"><defs><style>.a{fill:none;}.b{clip-path:url(#a);}</style><clipPath id="a" transform="translate(0 0)"><rect class="a" width="384" height="384"/></clipPath></defs><title>phone</title><g class="b"><path d="M353.19,252.05a218.26,218.26,0,0,1-68.47-10.9c-10.72-3.66-23.9-.31-30.44,6.41l-43.18,32.6C161,253.43,130.19,222.59,103.82,172.9l31.64-42.06a31,31,0,0,0,7.63-31.44,218.39,218.39,0,0,1-10.94-68.59A30.85,30.85,0,0,0,101.33,0H30.81A30.84,30.84,0,0,0,0,30.81C0,225.56,158.44,384,353.19,384A30.84,30.84,0,0,0,384,353.19V282.86a30.84,30.84,0,0,0-30.81-30.81" transform="translate(0 0)"/></g></svg>