<svg xmlns="http://www.w3.org/2000/svg" xmlns:xlink="http://www.w3.org/1999/xlink" viewBox="0 0 389.43 400"><defs><style>.a{fill:none;}.b{clip-path:url(#a);}.c{fill:#582f90;}</style><clipPath id="a" transform="translate(0 0)"><rect class="a" width="389.43" height="400"/></clipPath></defs><title>sperms</title><g class="b"><path class="c" d="M332.91,288a55.68,55.68,0,0,0-32.05,10.14,31.54,31.54,0,0,0-9.43-18.25,34,34,0,0,0-24.05-10.08,18.34,18.34,0,0,1-19.52-17.09,16.42,16.42,0,0,1,0-2.43A34,34,0,0,0,214,216.2h-.22a18.32,18.32,0,0,1-19.49-17,20.19,20.19,0,0,1,0-2.46,34.31,34.31,0,0,0-13.15-26.85,8,8,0,1,0-10.24,12.3,18.66,18.66,0,0,1,7.45,15.9,34,34,0,0,0,33.85,34.09h.24a18.33,18.33,0,0,1,19.49,17.06,19.7,19.7,0,0,1,0,2.43,34,34,0,0,0,34,34.12H266a18.68,18.68,0,0,1,14.09,5.45c6.64,6.64,4.47,11.79,6.4,21.44A56,56,0,1,0,332.92,288Zm0,96a40,40,0,1,1,40-40,40,40,0,0,1-40,40" transform="translate(0 0)"/><path class="c" d="M178.33,30.05a34,34,0,0,0,33.85,34.09h.24A18.33,18.33,0,0,1,231.91,81.2a19.7,19.7,0,0,1,0,2.43,34,34,0,0,0,34,34.12H266c20.38,1.74,18,14.47,20.51,26.89a56.31,56.31,0,1,0,14.32-14.5,33.9,33.9,0,0,0-33.48-28.33,18.34,18.34,0,0,1-19.52-17.09,16.42,16.42,0,0,1,0-2.43A34,34,0,0,0,214,48.2h-.22a18.32,18.32,0,0,1-19.49-17,20.19,20.19,0,0,1,0-2.46A34.31,34.31,0,0,0,181.12,1.85a8,8,0,0,0-10.24,12.3,18.66,18.66,0,0,1,7.45,15.9M332.91,136a40,40,0,1,1-40,40,40,40,0,0,1,40-40" transform="translate(0 0)"/><path class="c" d="M164.9,288a55.68,55.68,0,0,0-32,10.14,33.9,33.9,0,0,0-33.48-28.33,18.34,18.34,0,0,1-19.52-17.09,16.43,16.43,0,0,1,0-2.43A34,34,0,0,0,46,216.2h-.22a18.31,18.31,0,0,1-19.49-17,20.19,20.19,0,0,1,0-2.46,34.31,34.31,0,0,0-13.15-26.85,8,8,0,1,0-10.24,12.3,18.66,18.66,0,0,1,7.45,15.9,34,34,0,0,0,33.85,34.09h.24A18.31,18.31,0,0,1,63.9,249.2a16.43,16.43,0,0,1,0,2.43,34.06,34.06,0,0,0,34,34.12H98c20.39,1.74,18,14.47,20.52,26.89A56,56,0,1,0,164.94,288Zm0,96a40,40,0,1,1,40-40,40,40,0,0,1-40,40" transform="translate(0 0)"/></g></svg>