<svg xmlns="http://www.w3.org/2000/svg" xmlns:xlink="http://www.w3.org/1999/xlink" viewBox="0 0 400.4 406.52"><defs><style>.a,.c{fill:none;}.b{clip-path:url(#a);}.c{stroke:#000;stroke-miterlimit:10;stroke-width:7px;}</style><clipPath id="a" transform="translate(0 0)"><rect class="a" width="400.39" height="406.52"/></clipPath></defs><title>tablets</title><g class="b"><path d="M272.26,276.37l-142.16-142A74.16,74.16,0,0,0,25.22,239.25l142,142a74.22,74.22,0,1,0,105-104.88M36.5,227.89a58.15,58.15,0,0,1,82.24-82.24L184.26,211l-82.4,82.24ZM260.82,370a58.17,58.17,0,0,1-82.24,0l-65.36-65.36,82.24-82.32,65.36,65.36a58.23,58.23,0,0,1,0,82.32" transform="translate(0 0)"/><path class="c" d="M272.26,276.37l-142.16-142A74.16,74.16,0,0,0,25.22,239.25l142,142a74.22,74.22,0,1,0,105-104.88ZM36.5,227.89a58.15,58.15,0,0,1,82.24-82.24L184.26,211l-82.4,82.24ZM260.82,370a58.17,58.17,0,0,1-82.24,0l-65.36-65.36,82.24-82.32,65.36,65.36A58.23,58.23,0,0,1,260.82,370Z" transform="translate(0 0)"/><path d="M393.14,86.05a111.2,111.2,0,1,0-78.76,136.12l.44-.12a111.36,111.36,0,0,0,78.32-136M261.06,23.17A95,95,0,0,1,375.3,82.61L192.26,132a95.19,95.19,0,0,1,68.8-108.8m49.6,183.68v.32a95,95,0,0,1-114.24-59.76L379.46,98a95.2,95.2,0,0,1-68.8,108.88" transform="translate(0 0)"/><path class="c" d="M393.14,86.05a111.2,111.2,0,1,0-78.76,136.12l.44-.12A111.36,111.36,0,0,0,393.14,86.05ZM261.06,23.17A95,95,0,0,1,375.3,82.61L192.26,132A95.19,95.19,0,0,1,261.06,23.17Zm49.6,183.68v.32a95,95,0,0,1-114.24-59.76L379.46,98A95.2,95.2,0,0,1,310.66,206.85Z" transform="translate(0 0)"/></g></svg>