<svg xmlns="http://www.w3.org/2000/svg" viewBox="0 0 304 400"><defs><clipPath id="a"><path fill="none" d="M0 0h304v400H0z"/></clipPath><style>.c{fill:#5660a9}</style></defs><g clip-path="url(#a)"><path class="c" d="M152 0A152.16 152.16 0 000 152v96a152 152 0 00304 0v-96A152.16 152.16 0 00152 0M16 152a136 136 0 11136 136 152.08 152.08 0 00-106.71 44.05A135.22 135.22 0 0116 248zm272 96a135.93 135.93 0 01-232.15 96.09A136.06 136.06 0 01152 304a152 152 0 00136-84.53z"/><path class="c" d="M152 256A104 104 0 1048 152a104 104 0 00104 104m0-192a88 88 0 11-88 88 88 88 0 0188-88"/><path class="c" d="M152 224a53.88 53.88 0 0053.82-53.82 8 8 0 00-8-8h-91.64a8 8 0 00-8 8A53.88 53.88 0 00152 224m37-45.82a37.83 37.83 0 01-73.94 0z"/></g></svg>