<svg xmlns="http://www.w3.org/2000/svg" viewBox="0 0 386.33 512"><defs><clipPath id="a"><path fill="none" d="M0 0h386.33v512H0z"/></clipPath></defs><g clip-path="url(#a)"><path d="M100.33 30a70.34 70.34 0 1070.34 70.33A70.41 70.41 0 00100.33 30m0 15a55 55 0 0133.44 11.29l-77.48 77.48a55.29 55.29 0 0144-88.77m0 110.67a55 55 0 01-33.44-11.29l77.49-77.49a55.3 55.3 0 01-44 88.78m-.01 30A70.33 70.33 0 10170.67 256a70.41 70.41 0 00-70.34-70.33m0 15A55 55 0 01133.77 212l-77.48 77.44a55.29 55.29 0 0144-88.77m0 110.66a55.09 55.09 0 01-33.44-11.28l77.49-77.49a55.29 55.29 0 01-44 88.77m-.01 30a70.34 70.34 0 1070.34 70.34 70.42 70.42 0 00-70.34-70.34m0 15a55 55 0 0133.44 11.29l-77.48 77.49a55.3 55.3 0 0144-88.78m0 110.67a55 55 0 01-33.44-11.29l77.49-77.48a55.29 55.29 0 01-44 88.77M286 30a70.34 70.34 0 1070.33 70.33A70.41 70.41 0 00286 30m0 15a55 55 0 0133.44 11.29L242 133.77A55.3 55.3 0 01286 45m0 110.67a55 55 0 01-33.44-11.29l77.49-77.49A55.31 55.31 0 01286 155.67m0 30A70.33 70.33 0 10356.33 256 70.41 70.41 0 00286 185.67m0 15A55.07 55.07 0 01319.44 212L242 289.44a55.3 55.3 0 0144-88.77m0 110.66a55 55 0 01-33.44-11.28l77.49-77.49A55.3 55.3 0 01286 311.33m0 30a70.34 70.34 0 1070.33 70.34A70.42 70.42 0 00286 341.33m0 15a55 55 0 0133.44 11.29L242 445.11a55.31 55.31 0 0144-88.78M286 467a55 55 0 01-33.44-11.29l77.49-77.48A55.3 55.3 0 01286 467"/><path d="M333.83 0h-95.66a52.51 52.51 0 00-45 25.49 52.53 52.53 0 00-45-25.49H52.5A52.56 52.56 0 000 52.5v407A52.56 52.56 0 0052.5 512h95.67a52.53 52.53 0 0045-25.49 52.51 52.51 0 0045 25.49h95.66a52.56 52.56 0 0052.5-52.5v-407A52.56 52.56 0 00333.83 0m37.5 459.5a37.54 37.54 0 01-37.5 37.5h-95.66a37.54 37.54 0 01-37.5-37.5V271a7.5 7.5 0 00-15 0v188.5a37.54 37.54 0 01-37.5 37.5H52.5A37.54 37.54 0 0115 459.5v-407A37.54 37.54 0 0152.5 15h95.67a37.54 37.54 0 0137.5 37.5V241a7.5 7.5 0 0015 0V52.5a37.54 37.54 0 0137.5-37.5h95.66a37.54 37.54 0 0137.5 37.5z"/></g></svg>