<svg xmlns="http://www.w3.org/2000/svg" viewBox="0 0 507.05 512"><defs><clipPath id="a"><path fill="none" d="M0 0h507.05v512H0z"/></clipPath></defs><g clip-path="url(#a)"><path d="M494.93 97.15c-9.49-10.84-23-16.82-38.1-16.82H92.4l-3.67-27.5C84.78 23.21 64.16 0 41.78 0H15a15 15 0 000 30h26.78c4.81 0 15 10.18 17.22 26.8l42.93 322a60.68 60.68 0 0020.54 37.42 62 62 0 0028.79 14.32 55.17 55.17 0 1097.57 1.09h78.6a55.17 55.17 0 1098.14 0h39.3a15 15 0 000-30H162.28c-14.66 0-28.67-12.27-30.61-26.8l-3.14-23.54H424.7A62.25 62.25 0 00485 298.5l21.52-161.37c2-14.94-2.14-29.14-11.63-40m-270 359.68a25.17 25.17 0 11-25.16-25.16 25.19 25.19 0 0125.16 25.16m176.74 0a25.17 25.17 0 11-25.17-25.16 25.2 25.2 0 0125.17 25.16m70.69-339.92a20.15 20.15 0 014.46 16.25l-9 67.67H365.74l6-90.5h85.06a20.21 20.21 0 0115.53 6.58m-213 204.42l-6-90.5h80.37l-6 90.5zm-8-120.5l-6-90.5h96.37l-6 90.5zm-36.1-90.5l6 90.5H108.47L96.4 110.33zM112.47 230.83h110.76l6 90.5h-104.7zm312.23 90.5h-67l6-90.5h100.1l-8.49 63.71c-1.94 14.52-16 26.79-30.61 26.79"/></g></svg>