<svg xmlns="http://www.w3.org/2000/svg" viewBox="0 0 2140.86 312.02"><defs><clipPath id="a"><path fill="none" d="M0 0h2140.86v312.02H0z"/></clipPath><style>.b{fill:#9b9b9b}</style></defs><path class="b" d="M273.89 0l-3.82.04 1.53 135.87-34.08.39L235.99.43l-3.82.04 3.27 289.97 3.82-.05-1.59-141.25 34.08-.39 1.59 141.26 3.82-.05L273.89 0zm57.18 0L294 .42l3.28 289.96 37.42-.42-.14-12.42-33.6.38-1.45-128.83 30.73-.35-.14-12.43-30.73.35-1.4-123.86 33.24-.37L331.07 0z"/><g clip-path="url(#a)"><path class="b" d="M394.84 170.06c-12-3.59-20.22-33.33-20.8-84.28-.62-55.5 8.37-85.44 21.87-85.59L412.77 0 416 290l-3.82.05-1.31-119.75-11.6.13-20.41 120-4.54.05zm15.89-12.2l-1.64-145.39-13 .15c-11.6.13-18.75 23.83-18.2 72.7.55 48.47 8.24 72.82 19.72 72.69zM477.35 211c.57 50.54-8 78.81-22.55 79l-18.65.21L432.88.2l17.58-.2c13.15-.15 21.35 26.69 21.87 73.08.36 31.9-3.05 58-11.81 66C472 146.83 477 175.36 477.35 211m-40.5-198.4l1.37 121.4 14.46-.16c11.48-.13 16.21-26.7 15.82-60.66-.44-39.77-6.9-60.83-17.9-60.7zM473.53 211c-.42-36.45-7.31-65-20.58-64.81l-14.59.16 1.48 131.31 14.82-.16c12.44-.14 19.36-23 18.87-66.5M526.65 0l3.27 290-3.83.05L523 12.47l-24.86.28c-.32 130.51-.65 186.85-1.71 219.59-.69 24-3.85 61.36-12.58 61.46l-.18-12.8c6.33-.07 8.48-32 9-50.23.88-27.39 1.33-85.77 1.58-230.4zm38.17 170.06c-12-3.59-20.22-33.33-20.8-84.28-.62-55.5 8.36-85.44 21.87-85.59L582.75 0 586 290l-3.83.05-1.32-119.75-11.6.13-20.41 120-4.54.05zm15.89-12.2l-1.64-145.39-13 .15c-11.59.13-18.74 23.83-18.19 72.7.55 48.47 8.24 72.82 19.72 72.69zM690.19 12.43l-19.13.21 3.13 277.54-3.83.04-3.13-277.53-18.77.21-.14-12.43L690.05 0l.14 12.43zm11.57 202.38l-1.45-129.24C699.67 29.24 707.71.14 720.38 0c13.28-.15 21.23 26.69 22.89 78.87h-3.82c-1.59-45.14-7.93-66.62-18.93-66.49-10.4.11-16.94 23.8-16.39 73.1l1.46 129.24c.56 49.3 7.64 72.83 18.16 72.71 11.24-.13 17.33-21.74 17.89-66.9l3.71-.05c-.36 52.21-8 79.23-21.46 79.38-12.67.14-21.49-28.76-22.13-85.1m74.07-44.7c-12-3.59-20.23-33.33-20.8-84.28C754.4 30.28 763.39.34 776.9.19L793.76 0 797 290l-3.83.05-1.32-119.75-11.6.13-20.4 120-4.55.05zm15.88-12.2l-1.64-145.39-13 .15c-11.6.13-18.74 23.83-18.19 72.7.54 48.47 8.23 72.82 19.71 72.69zM881 0l3.27 290-3.83.05-3.17-277.58-24.87.28c-.32 130.51-.64 186.85-1.7 219.59-.69 24-3.86 61.36-12.58 61.46L838 281c6.34-.07 8.49-32 9-50.23.89-27.35 1.31-85.78 1.59-230.36zm60.62 277.54l.14 12.42-37.42.42L901.07.42 938.13 0l.14 12.43-33.23.37 1.39 123.86 30.73-.35.14 12.43-30.72.35 1.45 128.82 33.59-.37zm-301.2 0l.14 12.42-37.42.42L599.87.42 636.93 0l.14 12.43-33.23.37 1.39 123.86 30.73-.35.14 12.43-30.73.35 1.46 128.82 33.59-.37zm326.42-140.51l-7.37 35.3 1.33 118.06-3.83.04L953.7.47l3.83-.05 1.7 151.2 3.86-19.1L990.17.06l4.78-.06-25.73 125.4 31.99 164.53-4.42.05-29.95-152.95zm80.16 73.26l-28.93.33-5.08 79.6h-4.07L1028 .05h4.3l25.7 289.66-4.06.05zm-1.09-12l-10.18-118c-1.92-21.93-3.72-44.28-5.37-62.9-1.22 18.65-2.53 41-4 63l-7.51 118.15zm40.43-23.48l-14.11.16 1.3 115.15-3.83.05L1066.43.2l17.94-.2c14.82-.17 23.43 31.64 24.16 85.9.76 56.34-7.37 88.74-22.19 88.91m-1.83-162l-14.11.19 1.69 149.54 14.11-.16c12.67-.14 18.94-27.55 18.51-76.44-.41-46.81-7.53-73.24-20.2-73.1m38.12 201.97l-1.46-129.24c-.63-56.33 7.41-85.43 20.08-85.57 13.27-.15 21.23 26.69 22.89 78.87h-3.83c-1.58-45.14-7.92-66.62-18.92-66.49-10.4.11-17 23.8-16.39 73.1l1.46 129.24c.55 49.3 7.63 72.83 18.15 72.71 11.24-.13 17.34-21.74 17.9-66.9l3.7-.05c-.36 52.21-8 79.23-21.46 79.38-12.67.14-21.49-28.76-22.12-85.1m90.58-202.33l-19.13.21 3.13 277.54-3.83.04-3.12-277.53-18.78.21-.13-12.43 41.72-.47.14 12.43zM1270.47 211c.57 50.54-8 78.81-22.54 79l-18.66.21L1226 .2l17.58-.2c13.15-.15 21.34 26.69 21.87 73.08.36 31.9-3 58-11.81 66 11.44 7.74 16.43 36.27 16.83 71.89M1230 12.58l1.34 121.42 14.47-.16c11.47-.13 16.2-26.7 15.81-60.66-.44-39.77-6.9-60.83-17.9-60.7zM1266.65 211c-.42-36.45-7.32-65-20.59-64.81l-14.58.16 1.52 131.34 14.83-.16c12.43-.14 19.35-23 18.86-66.5m55.61 66.51l.14 12.42-37.42.42L1281.75.42l37.06-.42.14 12.43-33.24.37 1.4 123.86 30.73-.35.14 12.43-30.73.35 1.45 128.82 33.6-.37zM1376.11 0l3.27 289.96-3.83.05-1.59-141.26-34.08.39 1.6 141.25-3.83.05L1334.38.47l3.83-.04 1.53 135.87 34.08-.39L1372.28.04l3.83-.04zm61.83 0l3.28 289.96-3.83.05-1.59-141.26-34.08.39 1.6 141.25-3.83.05L1396.22.47l3.83-.04 1.53 135.87 34.07-.39L1434.12.04l3.82-.04zm20.12.61h3.83l1.41 124.68 14.1-.16c14.83-.16 23.41 29.15 24 81.76.6 53.44-7.32 83.36-22.14 83.52l-17.94.21zm21.06 276.92c12.68-.14 19-23.82 18.46-70.63-.52-46-7.36-69.52-20-69.38l-14.1.16 1.58 140zM1508.4 0h3.83l3.27 290-3.83.05zm78.71 0l3.26 289.14h-3.82l-2.41-213.75c-.18-15.74-.24-31.06-.28-45.56h-.13l-4.31 41.06-15.36 143.52h-3.83l-18.47-143.05c-1.84-14.48-3.79-28.55-5.25-41h-.12c.28 14.5.46 29.82.63 45.56l2.41 213.75h-3.82L1532.35.62l4.07-.05 20.41 156c1.7 13.24 3.56 29.37 5.13 41.79h.12c1.18-12.44 2.79-28.61 4.19-41.89L1583 .05zm50.36 214.81L1636 85.57c-.64-56.33 7.4-85.43 20.08-85.57 13.27-.15 21.23 26.69 22.89 78.87h-3.83c-1.58-45.14-7.92-66.62-18.92-66.49-10.4.11-17 23.8-16.39 73.1l1.46 129.24c.55 49.3 7.64 72.83 18.15 72.71 11.24-.13 17.34-21.74 17.9-66.9l3.71-.05c-.37 52.21-8 79.23-21.47 79.38-12.67.14-21.49-28.76-22.12-85.1m75.92-39.95l-14.11.16 1.3 115.15-3.83.05L1693.47.2l17.94-.2c14.82-.17 23.43 31.64 24.17 85.9.75 56.34-7.38 88.74-22.2 88.91m-1.83-162l-14.1.16 1.68 149.54 14.11-.16c12.67-.14 18.94-27.55 18.51-76.44-.41-46.81-7.53-73.24-20.2-73.1m76.18 264.73l.14 12.42-37.41.42L1747.18.42l37.06-.42.14 12.43-33.23.37 1.4 123.86 30.72-.35.14 12.43-30.73.35 1.46 128.83 33.59-.38zm64.08-.08l.39 33.93-3.83.05-.24-21.1-48.06.54.23 21.1h-3.7l-.38-33.93 5.37-.06c4.7-19.12 7.8-72.59 7.68-125.62l-.27-152 32.51-.37 3.13 277.54zm-14.11-265l-24.86.28.16 141.69c0 50.54-2.47 98.63-6.74 123.53l34.43-.39zM94 210.29l-28.93.33-5.07 79.6h-4.07L75 .05h4.3L105 289.71l-4.06.05zm-1.09-12l-10.18-118C80.83 58.4 79 36.05 77.38 17.43c-1.22 18.65-2.53 41-4 63l-7.47 118.16zm-65.27-59.2c11.44 7.74 16.43 36.27 16.83 71.89.57 50.54-8 78.81-22.54 79l-18.66.21L0 .2 36.58 0l.14 12.43L4 12.58 5.34 134c9.77-.56 13.77-.56 22.3 5.14m13 71.94c-.42-36.45-7.32-65-20.59-64.82l-14.58.17L7 277.69l14.83-.16c12.43-.14 19.35-23 18.86-66.5m131.12 66.43l.39 33.93-3.83.05-.24-21.1-48.06.54.23 21.1h-3.7l-.38-33.93 5.37-.06c4.7-19.12 7.8-72.59 7.68-125.62L129 .37 161.51 0l3.13 277.54zm-14.11-265l-24.86.28.16 141.7c0 50.54-2.47 98.63-6.74 123.53l34.43-.39zm1703.81 202.35l-1.45-129.24c-.64-56.33 7.4-85.43 20.07-85.57 13.28-.15 21.23 26.69 22.89 78.87h-3.83c-1.58-45.14-7.92-66.62-18.92-66.49-10.4.11-17 23.8-16.39 73.1l1.46 129.24c.55 49.3 7.64 72.83 18.15 72.71 11.25-.13 17.34-21.74 17.9-66.9l3.71-.05c-.37 52.21-7.95 79.23-21.47 79.38-12.67.14-21.48-28.76-22.12-85.1m90.58-202.33l-19.13.21 3.13 277.54-3.82.04-3.13-277.53-18.77.21-.14-12.43 41.72-.47.14 12.43zM2009.36 211c.57 50.54-8 78.81-22.55 79l-18.65.21L1964.89.2l17.58-.2c13.15-.15 21.34 26.69 21.87 73.08.36 31.9-3.06 58-11.81 66 11.44 7.74 16.43 36.27 16.83 71.89m-40.51-198.4l1.37 121.43 14.47-.16c11.48-.13 16.2-26.7 15.82-60.66-.45-39.77-6.91-60.83-17.91-60.7zM2005.53 211c-.41-36.45-7.31-65-20.58-64.81l-14.59.16 1.48 131.31 14.83-.16c12.44-.14 19.35-23 18.86-66.5m16.61 1.76l-1.41-124.68c-.64-57.17 7.74-87.92 21.61-88.08s22.94 30.4 23.58 87.57l1.41 124.68c.63 56.33-7.74 87.5-21.61 87.66s-22.94-30.82-23.58-87.15m41.36-.46l-1.4-124.69c-.56-49.71-8-74.9-19.61-74.76s-18.38 25.47-17.81 75.15l1.4 124.69c.56 49.29 7.9 74.48 19.5 74.35s18.48-25.48 17.92-74.77M2137.6 0l3.26 289.14h-3.83l-2.41-213.75c-.18-15.74-.23-31.06-.28-45.56h-.12l-4.31 41.06-15.37 143.52h-3.82l-18.48-143.05c-1.84-14.48-3.79-28.55-5.24-41h-.12c.28 14.5.45 29.82.63 45.56l2.41 213.75h-3.83L2082.83.62l4.07-.05 20.41 156c1.7 13.24 3.56 29.37 5.14 41.79h.12c1.18-12.44 2.78-28.61 4.19-41.89L2133.53.05zM192.11 285.19c0 4.31-2.3 7.81-5.15 7.81s-5.14-3.5-5.14-7.81 2.3-7.82 5.14-7.82 5.15 3.5 5.15 7.82"/></g></svg>