<svg xmlns="http://www.w3.org/2000/svg" viewBox="0 0 384 384"><defs><clipPath id="a"><path fill="none" d="M0 0h384v384H0z"/></clipPath></defs><g clip-path="url(#a)"><path d="M353.19 252.05a218.26 218.26 0 01-68.47-10.9c-10.72-3.66-23.9-.31-30.44 6.41l-43.18 32.6c-50.1-26.73-80.91-57.57-107.28-107.26l31.64-42.06a31 31 0 007.63-31.44 218.39 218.39 0 01-10.94-68.59A30.85 30.85 0 00101.33 0H30.81A30.84 30.84 0 000 30.81C0 225.56 158.44 384 353.19 384A30.84 30.84 0 00384 353.19v-70.33a30.84 30.84 0 00-30.81-30.81"/></g></svg>