<svg xmlns="http://www.w3.org/2000/svg" viewBox="0 0 256 256"><defs><clipPath id="a"><path fill="none" d="M0 0h256v256H0z"/></clipPath></defs><g clip-path="url(#a)"><path d="M182.38 142.47a309.47 309.47 0 01-25.5-22c-8.13-8.13-15.37-16-21.66-23.5 9.81-30.32 14.11-46 14.11-54.29 0-35.41-12.79-42.67-32-42.67-14.59 0-32 7.58-32 43.69 0 15.91 8.72 35.24 26 57.7-4.22 12.9-9.19 27.79-14.78 44.57-2.68 8-5.6 15.51-8.68 22.4-2.51 1.12-5 2.25-7.31 3.43-8.48 4.24-16.53 8.05-24 11.6C22.5 199.51 0 210.18 0 231.24 0 246.53 16.62 256 32 256c19.83 0 49.78-26.49 71.66-71.12 22.7-8.95 50.93-15.59 73.22-19.75C194.73 178.86 214.45 192 224 192c26.45 0 32-15.29 32-28.12 0-25.21-28.81-25.21-42.67-25.21-4.3 0-15.84 1.27-31 3.8M32 234.67c-6.09 0-10.22-2.88-10.67-3.43 0-7.56 22.56-18.25 44.37-28.58l4.22-2c-16 23.23-31.87 34-37.92 34m74.67-191c0-22.36 6.94-22.36 10.66-22.36 7.55 0 10.67 0 10.67 21.34 0 4.5-3 15.75-8.49 33.31-8.37-12.9-12.84-24-12.84-32.29m8.17 114.64q1-2.78 1.94-5.62c4-11.88 7.52-22.54 10.7-32.15q6.64 7.32 14.31 15c2 2 7 6.5 13.57 12.14-13.15 2.86-27.14 6.41-40.52 10.65m119.83 5.56c0 4.79 0 6.78-9.9 6.84-2.9-.62-9.62-4.58-17.92-10.23 3-.33 5.23-.5 6.48-.5 15.76 0 20.23 1.54 21.34 3.89"/></g></svg>