<svg xmlns="http://www.w3.org/2000/svg" viewBox="0 0 389.43 400"><defs><clipPath id="a"><path fill="none" d="M0 0h389.43v400H0z"/></clipPath></defs><g clip-path="url(#a)"><path d="M332.91 288a55.68 55.68 0 00-32.05 10.14 31.54 31.54 0 00-9.43-18.25 34 34 0 00-24.05-10.08 18.34 18.34 0 01-19.52-17.09 16.42 16.42 0 010-2.43A34 34 0 00214 216.2h-.22a18.32 18.32 0 01-19.49-17 20.19 20.19 0 010-2.46 34.31 34.31 0 00-13.15-26.85 8.002 8.002 0 10-10.24 12.3 18.66 18.66 0 017.45 15.9 34 34 0 0033.85 34.09h.24a18.33 18.33 0 0119.49 17.06 19.7 19.7 0 010 2.43 34 34 0 0034 34.12h.07a18.68 18.68 0 0114.09 5.45c6.64 6.64 4.47 11.79 6.4 21.44A56 56 0 10332.92 288zm0 96a40 40 0 1140-40 40 40 0 01-40 40M178.33 30.05a34 34 0 0033.85 34.09h.24a18.33 18.33 0 0119.49 17.06 19.7 19.7 0 010 2.43 34 34 0 0034 34.12h.09c20.38 1.74 18 14.47 20.51 26.89a56.31 56.31 0 1014.32-14.5 33.9 33.9 0 00-33.48-28.33 18.34 18.34 0 01-19.52-17.09 16.42 16.42 0 010-2.43A34 34 0 00214 48.2h-.22a18.32 18.32 0 01-19.49-17 20.19 20.19 0 010-2.46 34.31 34.31 0 00-13.17-26.89 8.002 8.002 0 00-10.24 12.3 18.66 18.66 0 017.45 15.9M332.91 136a40 40 0 11-40 40 40 40 0 0140-40M164.9 288a55.68 55.68 0 00-32 10.14 33.9 33.9 0 00-33.48-28.33 18.34 18.34 0 01-19.52-17.09 16.43 16.43 0 010-2.43A34 34 0 0046 216.2h-.22a18.31 18.31 0 01-19.49-17 20.19 20.19 0 010-2.46 34.31 34.31 0 00-13.15-26.85 8.002 8.002 0 10-10.24 12.3 18.66 18.66 0 017.45 15.9 34 34 0 0033.85 34.09h.24A18.31 18.31 0 0163.9 249.2a16.43 16.43 0 010 2.43 34.06 34.06 0 0034 34.12h.1c20.39 1.74 18 14.47 20.52 26.89A56 56 0 10164.94 288zm0 96a40 40 0 1140-40 40 40 0 01-40 40" fill="#582f90"/></g></svg>