<svg xmlns="http://www.w3.org/2000/svg" viewBox="0 0 400.4 406.52"><defs><clipPath id="a"><path fill="none" d="M0 0h400.39v406.52H0z"/></clipPath><style>.c{fill:none;stroke:#000;stroke-miterlimit:10;stroke-width:7px}</style></defs><g clip-path="url(#a)"><path d="M272.26 276.37l-142.16-142A74.161 74.161 0 0025.22 239.25l142 142a74.22 74.22 0 10105-104.88M36.5 227.89a58.152 58.152 0 0182.24-82.24L184.26 211l-82.4 82.24zM260.82 370a58.17 58.17 0 01-82.24 0l-65.36-65.36 82.24-82.32 65.36 65.36a58.23 58.23 0 010 82.32"/><path class="c" d="M272.26 276.37l-142.16-142A74.161 74.161 0 0025.22 239.25l142 142a74.22 74.22 0 10105-104.88zM36.5 227.89a58.152 58.152 0 0182.24-82.24L184.26 211l-82.4 82.24zM260.82 370a58.17 58.17 0 01-82.24 0l-65.36-65.36 82.24-82.32 65.36 65.36a58.23 58.23 0 010 82.32z"/><path d="M393.14 86.05a111.2 111.2 0 10-78.76 136.12l.44-.12a111.36 111.36 0 0078.32-136M261.06 23.17A95 95 0 01375.3 82.61L192.26 132a95.19 95.19 0 0168.8-108.8m49.6 183.68v.32a95 95 0 01-114.24-59.76L379.46 98a95.2 95.2 0 01-68.8 108.88"/><path class="c" d="M393.14 86.05a111.2 111.2 0 10-78.76 136.12l.44-.12a111.36 111.36 0 0078.32-136zM261.06 23.17A95 95 0 01375.3 82.61L192.26 132a95.19 95.19 0 0168.8-108.83zm49.6 183.68v.32a95 95 0 01-114.24-59.76L379.46 98a95.2 95.2 0 01-68.8 108.85z"/></g></svg>